# xmcd CD database file
# Copyright (C) 1997 Ti Kan
#
# Track frame offsets:
#  150
#  11975
#  25796
#  38274
#  53600
#  66478
#  79551
#  90542
#  104082
#  118658
#  133869
#  145612
#
# Disc length: 2127 seconds
#
# Revision: 1
# Processed by: cddbd v1.4b41PL1 Copyright (c) Steve Scherf et al.
# Submitted via: CDWizzard Release:4.20
#
DISCID=9a084d0c
DTITLE=Brandon Carter - Brandon
DYEAR=1900
DGENRE=
TTITLE0=My Baby Can't Sleep Without A Nightmare
TTITLE1=The Last Carry Me Though Kiss
TTITLE2=Raised On A Gravel Road
TTITLE3=She's Right Here In My Memory
TTITLE4=The Writing On The Wall
TTITLE5=Sometimes I Go As Far
TTITLE6=Plastic Money
TTITLE7=Before You Turn To A Memory
TTITLE8=Crazy Arms
TTITLE9=Long Days
TTITLE10=Standin' On My Feet
TTITLE11=He Reached Me
EXTD=1997 Independent Young Country Artist\nDardanelle, Arkansas native\n
EXTD=
EXTT0=
EXTT1=
EXTT2=
EXTT3=
EXTT4=
EXTT5=
EXTT6=
EXTT7=
EXTT8=
EXTT9=
EXTT10=
EXTT11=
PLAYORDER=
